{
    "asset" : {
        "generator" : "Khronos glTF Blender I/O v3.2.40",
        "version" : "2.0"
    },
    "extensionsUsed" : [
        "KHR_texture_transform"
    ],
    "extensionsRequired" : [
        "KHR_texture_transform"
    ],
    "scene" : 0,
    "scenes" : [
        {
            "name" : "Scene",
            "nodes" : [
                0,
                1,
                2,
                3
            ]
        }
    ],
    "nodes" : [
        {
            "mesh" : 0,
            "name" : "Sphere.002",
            "scale" : [
                0.024467766284942627,
                0.024467766284942627,
                0.024467766284942627
            ],
            "translation" : [
                0,
                1.8926992416381836,
                -4.518796443939209
            ]
        },
        {
            "mesh" : 1,
            "name" : "Sphere",
            "scale" : [
                0.024467766284942627,
                0.024467766284942627,
                0.024467766284942627
            ],
            "translation" : [
                0,
                1.8926992416381836,
                3.931295156478882
            ]
        },
        {
            "mesh" : 2,
            "name" : "Plane.006",
            "translation" : [
                -0.0553816594183445,
                1.080674648284912,
                -0.4214944839477539
            ]
        },
        {
            "mesh" : 3,
            "name" : "Sphere.001",
            "scale" : [
                0.024467766284942627,
                0.024467766284942627,
                0.024467766284942627
            ],
            "translation" : [
                -2.9395511150360107,
                1.7218178510665894,
                1.379903793334961
            ]
        }
    ],
    "materials" : [
        {
            "doubleSided" : true,
            "name" : "luz",
            "pbrMetallicRoughness" : {
                "baseColorFactor" : [
                    0.8000000715255737,
                    0.5788366794586182,
                    0.5031371712684631,
                    1
                ],
                "metallicFactor" : 0,
                "roughnessFactor" : 0.5
            }
        },
        {
            "doubleSided" : true,
            "name" : "Brick",
            "normalTexture" : {
                "index" : 0,
                "scale" : 1.3000000715255737
            },
            "pbrMetallicRoughness" : {
                "baseColorTexture" : {
                    "index" : 1
                },
                "metallicFactor" : 0
            }
        },
        {
            "doubleSided" : true,
            "name" : "Wall",
            "normalTexture" : {
                "extensions" : {
                    "KHR_texture_transform" : {
                        "offset" : [
                            0,
                            -19
                        ],
                        "scale" : [
                            20,
                            20
                        ]
                    }
                },
                "index" : 2,
                "scale" : 1.3000000715255737
            },
            "pbrMetallicRoughness" : {
                "baseColorTexture" : {
                    "extensions" : {
                        "KHR_texture_transform" : {
                            "offset" : [
                                0,
                                -19
                            ],
                            "scale" : [
                                20,
                                20
                            ]
                        }
                    },
                    "index" : 3
                },
                "metallicFactor" : 0
            }
        }
    ],
    "meshes" : [
        {
            "name" : "Sphere.002",
            "primitives" : [
                {
                    "attributes" : {
                        "POSITION" : 0,
                        "NORMAL" : 1
                    },
                    "indices" : 2,
                    "material" : 0
                }
            ]
        },
        {
            "name" : "Sphere",
            "primitives" : [
                {
                    "attributes" : {
                        "POSITION" : 3,
                        "NORMAL" : 4
                    },
                    "indices" : 2,
                    "material" : 0
                }
            ]
        },
        {
            "name" : "Plane.006",
            "primitives" : [
                {
                    "attributes" : {
                        "POSITION" : 5,
                        "NORMAL" : 6,
                        "TEXCOORD_0" : 7
                    },
                    "indices" : 8,
                    "material" : 1
                },
                {
                    "attributes" : {
                        "POSITION" : 9,
                        "NORMAL" : 10,
                        "TEXCOORD_0" : 11
                    },
                    "indices" : 12,
                    "material" : 2
                }
            ]
        },
        {
            "name" : "Sphere.001",
            "primitives" : [
                {
                    "attributes" : {
                        "POSITION" : 13,
                        "NORMAL" : 14
                    },
                    "indices" : 2,
                    "material" : 0
                }
            ]
        }
    ],
    "textures" : [
        {
            "sampler" : 0,
            "source" : 0
        },
        {
            "sampler" : 0,
            "source" : 1
        },
        {
            "sampler" : 0,
            "source" : 2
        },
        {
            "sampler" : 0,
            "source" : 3
        }
    ],
    "images" : [
        {
            "mimeType" : "image/jpeg",
            "name" : "GroundCobblestone001_NRM_1K",
            "uri" : "GroundCobblestone001_NRM_1K.jpg"
        },
        {
            "mimeType" : "image/jpeg",
            "name" : "GroundCobblestone001_COL_1K",
            "uri" : "GroundCobblestone001_COL_1K.jpg"
        },
        {
            "mimeType" : "image/jpeg",
            "name" : "ConcreteWall001_NRM_1K",
            "uri" : "ConcreteWall001_NRM_1K.jpg"
        },
        {
            "mimeType" : "image/jpeg",
            "name" : "ConcreteWall001_COL_VAR1_1K",
            "uri" : "ConcreteWall001_COL_VAR1_1K.jpg"
        }
    ],
    "accessors" : [
        {
            "bufferView" : 0,
            "componentType" : 5126,
            "count" : 1984,
            "max" : [
                1.0000003576278687,
                1,
                0.9999998211860657
            ],
            "min" : [
                -1,
                -1,
                -1.000000238418579
            ],
            "type" : "VEC3"
        },
        {
            "bufferView" : 1,
            "componentType" : 5126,
            "count" : 1984,
            "type" : "VEC3"
        },
        {
            "bufferView" : 2,
            "componentType" : 5123,
            "count" : 2880,
            "type" : "SCALAR"
        },
        {
            "bufferView" : 3,
            "componentType" : 5126,
            "count" : 1984,
            "max" : [
                1.0000003576278687,
                1,
                0.9999998211860657
            ],
            "min" : [
                -1,
                -1,
                -1.000000238418579
            ],
            "type" : "VEC3"
        },
        {
            "bufferView" : 4,
            "componentType" : 5126,
            "count" : 1984,
            "type" : "VEC3"
        },
        {
            "bufferView" : 5,
            "componentType" : 5126,
            "count" : 56,
            "max" : [
                0.9553816318511963,
                1.0193252563476562,
                11.41132640838623
            ],
            "min" : [
                -1.0937398672103882,
                -1.080674648284912,
                -11.369335174560547
            ],
            "type" : "VEC3"
        },
        {
            "bufferView" : 6,
            "componentType" : 5126,
            "count" : 56,
            "type" : "VEC3"
        },
        {
            "bufferView" : 7,
            "componentType" : 5126,
            "count" : 56,
            "type" : "VEC2"
        },
        {
            "bufferView" : 8,
            "componentType" : 5123,
            "count" : 102,
            "type" : "SCALAR"
        },
        {
            "bufferView" : 9,
            "componentType" : 5126,
            "count" : 328,
            "max" : [
                0.9553816318511963,
                1.0193252563476562,
                11.41132640838623
            ],
            "min" : [
                -1.0937398672103882,
                -1.080674648284912,
                -11.369335174560547
            ],
            "type" : "VEC3"
        },
        {
            "bufferView" : 10,
            "componentType" : 5126,
            "count" : 328,
            "type" : "VEC3"
        },
        {
            "bufferView" : 11,
            "componentType" : 5126,
            "count" : 328,
            "type" : "VEC2"
        },
        {
            "bufferView" : 12,
            "componentType" : 5123,
            "count" : 534,
            "type" : "SCALAR"
        },
        {
            "bufferView" : 13,
            "componentType" : 5126,
            "count" : 1984,
            "max" : [
                1.0000003576278687,
                1,
                0.9999998211860657
            ],
            "min" : [
                -1,
                -1,
                -1.000000238418579
            ],
            "type" : "VEC3"
        },
        {
            "bufferView" : 14,
            "componentType" : 5126,
            "count" : 1984,
            "type" : "VEC3"
        }
    ],
    "bufferViews" : [
        {
            "buffer" : 0,
            "byteLength" : 23808,
            "byteOffset" : 0
        },
        {
            "buffer" : 0,
            "byteLength" : 23808,
            "byteOffset" : 23808
        },
        {
            "buffer" : 0,
            "byteLength" : 5760,
            "byteOffset" : 47616
        },
        {
            "buffer" : 0,
            "byteLength" : 23808,
            "byteOffset" : 53376
        },
        {
            "buffer" : 0,
            "byteLength" : 23808,
            "byteOffset" : 77184
        },
        {
            "buffer" : 0,
            "byteLength" : 672,
            "byteOffset" : 100992
        },
        {
            "buffer" : 0,
            "byteLength" : 672,
            "byteOffset" : 101664
        },
        {
            "buffer" : 0,
            "byteLength" : 448,
            "byteOffset" : 102336
        },
        {
            "buffer" : 0,
            "byteLength" : 204,
            "byteOffset" : 102784
        },
        {
            "buffer" : 0,
            "byteLength" : 3936,
            "byteOffset" : 102988
        },
        {
            "buffer" : 0,
            "byteLength" : 3936,
            "byteOffset" : 106924
        },
        {
            "buffer" : 0,
            "byteLength" : 2624,
            "byteOffset" : 110860
        },
        {
            "buffer" : 0,
            "byteLength" : 1068,
            "byteOffset" : 113484
        },
        {
            "buffer" : 0,
            "byteLength" : 23808,
            "byteOffset" : 114552
        },
        {
            "buffer" : 0,
            "byteLength" : 23808,
            "byteOffset" : 138360
        }
    ],
    "samplers" : [
        {
            "magFilter" : 9729,
            "minFilter" : 9987
        }
    ],
    "buffers" : [
        {
            "byteLength" : 162168,
            "uri" : "room.bin"
        }
    ]
}
