{
    "asset" : {
        "generator" : "Khronos glTF Blender I/O v3.2.40",
        "version" : "2.0"
    },
    "extensionsUsed" : [
        "KHR_texture_transform"
    ],
    "extensionsRequired" : [
        "KHR_texture_transform"
    ],
    "scene" : 0,
    "scenes" : [
        {
            "name" : "Scene",
            "nodes" : [
                0
            ]
        }
    ],
    "nodes" : [
        {
            "mesh" : 0,
            "name" : "Cylinder",
            "scale" : [
                0.603226900100708,
                1.8695143461227417,
                0.603226900100708
            ],
            "translation" : [
                0,
                2.0083954334259033,
                0
            ]
        }
    ],
    "materials" : [
        {
            "doubleSided" : true,
            "name" : "Bottle",
            "normalTexture" : {
                "extensions" : {
                    "KHR_texture_transform" : {
                        "offset" : [
                            0,
                            -19
                        ],
                        "scale" : [
                            20,
                            20
                        ]
                    }
                },
                "index" : 0,
                "scale" : 1.3000000715255737
            },
            "pbrMetallicRoughness" : {
                "baseColorFactor" : [
                    0.3588380217552185,
                    0.024103622883558273,
                    0.022066568955779076,
                    1
                ],
                "metallicFactor" : 0
            }
        },
        {
            "doubleSided" : true,
            "name" : "Cap",
            "pbrMetallicRoughness" : {
                "baseColorFactor" : [
                    0,
                    0,
                    0,
                    1
                ],
                "metallicFactor" : 0.5118110179901123,
                "roughnessFactor" : 0.34645670652389526
            }
        }
    ],
    "meshes" : [
        {
            "name" : "Cylinder",
            "primitives" : [
                {
                    "attributes" : {
                        "POSITION" : 0,
                        "NORMAL" : 1,
                        "TEXCOORD_0" : 2
                    },
                    "indices" : 3,
                    "material" : 0
                },
                {
                    "attributes" : {
                        "POSITION" : 4,
                        "NORMAL" : 5,
                        "TEXCOORD_0" : 6
                    },
                    "indices" : 7,
                    "material" : 1
                }
            ]
        }
    ],
    "textures" : [
        {
            "sampler" : 0,
            "source" : 0
        }
    ],
    "images" : [
        {
            "mimeType" : "image/jpeg",
            "name" : "bottlenrml",
            "uri" : "bottlenrml.jpg"
        }
    ],
    "accessors" : [
        {
            "bufferView" : 0,
            "componentType" : 5126,
            "count" : 2095,
            "max" : [
                1,
                1.0562286376953125,
                1
            ],
            "min" : [
                -1,
                -1,
                -1
            ],
            "type" : "VEC3"
        },
        {
            "bufferView" : 1,
            "componentType" : 5126,
            "count" : 2095,
            "type" : "VEC3"
        },
        {
            "bufferView" : 2,
            "componentType" : 5126,
            "count" : 2095,
            "type" : "VEC2"
        },
        {
            "bufferView" : 3,
            "componentType" : 5123,
            "count" : 9399,
            "type" : "SCALAR"
        },
        {
            "bufferView" : 4,
            "componentType" : 5126,
            "count" : 383,
            "max" : [
                0.4057065546512604,
                1.1932872533798218,
                0.4057065546512604
            ],
            "min" : [
                -0.40570658445358276,
                1.0562286376953125,
                -0.4057065546512604
            ],
            "type" : "VEC3"
        },
        {
            "bufferView" : 5,
            "componentType" : 5126,
            "count" : 383,
            "type" : "VEC3"
        },
        {
            "bufferView" : 6,
            "componentType" : 5126,
            "count" : 383,
            "type" : "VEC2"
        },
        {
            "bufferView" : 7,
            "componentType" : 5123,
            "count" : 2073,
            "type" : "SCALAR"
        }
    ],
    "bufferViews" : [
        {
            "buffer" : 0,
            "byteLength" : 25140,
            "byteOffset" : 0
        },
        {
            "buffer" : 0,
            "byteLength" : 25140,
            "byteOffset" : 25140
        },
        {
            "buffer" : 0,
            "byteLength" : 16760,
            "byteOffset" : 50280
        },
        {
            "buffer" : 0,
            "byteLength" : 18798,
            "byteOffset" : 67040
        },
        {
            "buffer" : 0,
            "byteLength" : 4596,
            "byteOffset" : 85840
        },
        {
            "buffer" : 0,
            "byteLength" : 4596,
            "byteOffset" : 90436
        },
        {
            "buffer" : 0,
            "byteLength" : 3064,
            "byteOffset" : 95032
        },
        {
            "buffer" : 0,
            "byteLength" : 4146,
            "byteOffset" : 98096
        }
    ],
    "samplers" : [
        {
            "magFilter" : 9729,
            "minFilter" : 9987
        }
    ],
    "buffers" : [
        {
            "byteLength" : 102244,
            "uri" : "bottle.bin"
        }
    ]
}
